<?xml version="1.0" encoding="utf-8"?>
<svg x="10.5664pt" y="53.7604pt" width="405.471pt" height="113.693pt" viewBox="10.5664 53.7604 405.471 113.693" xmlns="http://www.w3.org/2000/svg" xmlns:xlink="http://www.w3.org/1999/xlink">
  <g id="1">
    <title>Layer 1</title>
    <g id="2">
      <title>Text</title>
      <defs>
        <title>Text</title>
        <g id="3">
          <defs>
            <path id="4" d="M34.0107,120.602 C34.0107,124.802,35.7042,127.502,38.3939,129.602 C39.8882,130.702,40.7847,130.702,41.8805,128.702 C47.758,118.002,57.4209,104.502,66.1873,93.2019 C61.306,103.202,56.4247,113.702,55.2293,118.402 C55.2293,118.402,55.2293,118.302,55.2293,118.302 C54.6316,120.502,54.4324,122.402,54.4324,124.002 C54.4324,126.902,55.5282,128.602,56.7236,129.702 C58.3175,131.102,59.214,131.102,59.9114,129.102 C64.7926,115.102,74.6548,95.3019,81.5284,82.4019 C82.8235,79.7019,83.9193,76.9019,83.9193,74.2019 C83.9193,71.8019,83.0227,69.4019,81.0303,67.3019 C79.1376,65.5019,77.8426,65.6019,76.5475,67.7019 C65.49,85.3019,54.8308,95.1019,44.371,111.002 C47.9572,97.6019,49.9496,91.5019,53.0377,82.5019 C53.9343,79.6019,54.4324,77.1019,54.4324,75.3019 C54.4324,72.1019,53.0377,69.5019,50.348,67.2019 C48.4553,65.7019,46.8614,66.3019,45.666,67.9019 C35.2061,82.0019,19.5661,108.202,15.4818,118.202 C14.5852,120.402,14.0872,122.602,14.0872,124.502 C14.0872,126.702,14.7845,128.402,15.8803,129.502 C17.1753,130.802,18.6696,130.502,19.2673,129.102 C24.6466,116.702,33.5126,102.302,41.2828,90.3019 C37.8958,101.302,35.0069,112.602,34.3096,117.102 C34.1103,118.402,34.0107,119.502,34.0107,120.602 z"/>
          </defs>
          <use xlink:href="#4" style="fill:#000000;fill-opacity:1;fill-rule:evenodd;opacity:1;stroke:none;"/>
        </g>
      </defs>
      <use xlink:href="#3"/>
      <defs>
        <title>Text</title>
        <g id="5">
          <defs>
            <path id="6" d="M77.3445,104.602 C73.7582,109.602,71.9651,115.202,71.9651,119.502 C71.9651,125.402,75.1529,129.702,81.0303,129.702 C85.0151,129.702,89.4979,126.602,92.3868,123.802 C93.1837,127.502,96.0726,130.102,101.054,130.102 C107.13,130.102,113.506,124.802,116.096,119.302 C117.49,116.402,116.893,113.702,116.494,112.802 C115.498,110.702,114.602,110.802,113.506,112.802 C110.218,119.302,105.237,126.102,101.651,126.102 C100.655,126.102,100.257,125.202,100.257,123.702 C100.257,117.002,108.624,106.102,111.215,100.602 C113.805,95.4019,112.908,91.0019,111.215,89.0019 C110.019,87.6019,108.326,87.7019,107.13,89.7019 C107.13,89.7019,105.237,92.8019,105.237,92.8019 C104.341,90.2019,102.149,88.4019,98.5631,88.4019 C93.4826,88.4019,85.3139,93.1019,77.3445,104.602 z M82.3254,125.302 C81.3292,125.302,80.9307,124.102,80.9307,122.302 C80.9307,119.102,82.6242,113.802,85.6128,109.102 C90.6933,100.902,97.5669,94.6019,99.5593,94.6019 C100.555,94.6019,100.755,95.3019,100.755,96.5019 C100.755,99.1019,98.9615,104.002,95.0765,110.802 C90.1952,119.202,85.6128,125.302,82.3254,125.302 z"/>
          </defs>
          <use xlink:href="#6" style="fill:#000000;fill-opacity:1;fill-rule:evenodd;opacity:1;stroke:none;"/>
        </g>
      </defs>
      <use xlink:href="#5"/>
      <defs>
        <title>Text</title>
        <g id="7">
          <defs>
            <path id="8" d="M129.644,89.4019 C128.648,87.6019,127.153,87.5019,125.858,89.4019 C119.682,98.7019,112.011,112.702,110.119,118.302 C109.521,120.302,109.222,122.002,109.222,123.502 C109.222,125.902,110.019,127.602,111.414,129.002 C113.008,130.602,114.303,130.002,115,128.402 C119.084,119.402,123.567,109.602,129.046,103.802 C134.525,97.6019,139.406,94.8019,140.303,94.8019 C141,94.8019,139.406,97.4019,137.314,100.702 C133.429,106.902,128.847,116.102,128.847,121.502 C128.847,126.702,131.736,130.102,138.41,130.102 C144.387,130.102,151.659,124.802,154.449,119.302 C155.843,116.602,155.744,113.502,154.947,112.302 C154.05,110.902,152.656,110.802,151.659,112.702 C148.073,119.402,142.893,125.902,139.506,125.902 C138.211,125.902,137.514,124.602,137.514,122.502 C137.514,118.802,140.901,112.202,144.088,107.102 C147.276,101.502,149.069,98.3019,149.069,96.1019 C149.069,92.3019,146.38,88.8019,143.491,88.8019 C139.904,88.8019,135.123,92.1019,130.839,96.1019 C130.939,95.5019,130.939,94.8019,130.939,94.1019 C130.939,92.5019,130.54,90.9019,129.644,89.4019 z"/>
          </defs>
          <use xlink:href="#8" style="fill:#000000;fill-opacity:1;fill-rule:evenodd;opacity:1;stroke:none;"/>
        </g>
      </defs>
      <use xlink:href="#7"/>
      <defs>
        <title>Text</title>
        <g id="9">
          <defs>
            <path id="10" d="M174.173,119.302 C175.468,116.702,175.568,114.202,174.671,112.502 C173.775,110.702,172.48,110.502,171.683,112.302 C168.594,119.102,163.414,125.802,159.43,125.802 C158.334,125.802,157.935,124.902,157.935,123.302 C157.935,121.702,158.433,119.602,159.33,117.302 C161.023,113.302,165.606,105.802,167.499,101.502 C170.089,96.5019,169.292,92.2019,167.399,90.2019 C166.104,88.7019,164.909,88.9019,163.414,90.9019 C159.728,96.1019,153.353,107.702,150.862,114.702 C150.065,117.302,149.667,119.402,149.667,121.302 C149.667,126.302,152.357,129.802,158.433,129.802 C164.311,129.802,171.184,125.602,174.173,119.302 z"/>
          </defs>
          <use xlink:href="#10" style="fill:#000000;fill-opacity:1;fill-rule:evenodd;opacity:1;stroke:none;"/>
        </g>
      </defs>
      <use xlink:href="#9"/>
      <defs>
        <title>Text</title>
        <g id="11">
          <defs>
            <path id="12" d="M185.43,104.802 C189.713,97.5019,195.192,92.9019,196.986,93.7019 C197.484,93.9019,197.683,95.1019,197.683,96.9019 C197.683,100.202,196.487,105.302,194.097,110.002 C190.012,118.302,185.529,123.802,182.441,123.802 C179.851,123.802,179.154,116.602,182.242,110.202 z M206.15,99.9019 C206.15,94.8019,203.261,89.4019,197.284,89.4019 C194.595,89.4019,191.706,90.7019,189.215,92.4019 C189.215,91.1019,189.016,89.8019,188.219,88.7019 C187.422,87.6019,186.127,87.2019,184.334,89.4019 C178.158,97.7019,161.721,128.802,158.832,138.302 C157.935,141.102,157.636,143.202,157.636,144.802 C157.636,146.902,158.135,148.302,159.629,150.202 C160.625,151.402,161.82,151.002,162.617,149.202 C166.801,139.402,171.085,130.802,175.468,122.602 C177.759,128.002,182.641,130.702,190.51,130.702 C198.779,130.702,207.147,127.902,211.629,119.802 C213.323,116.802,213.223,114.002,213.024,113.002 C212.626,111.002,210.534,110.502,209.338,112.802 C206.449,118.602,200.771,125.202,193.399,126.702 C196.587,124.102,199.874,119.602,202.265,114.102 C204.556,109.302,206.15,104.202,206.15,99.9019 z"/>
          </defs>
          <use xlink:href="#12" style="fill:#000000;fill-opacity:1;fill-rule:evenodd;opacity:1;stroke:none;"/>
        </g>
      </defs>
      <use xlink:href="#11"/>
      <defs>
        <title>Text</title>
        <g id="13">
          <defs>
            <path id="14" d="M243.706,107.102 C244.503,106.102,244.304,105.202,241.714,105.202 C242.61,96.7019,239.821,96.0019,237.032,92.7019 C235.139,90.1019,233.346,89.0019,230.457,89.0019 C223.882,89.0019,217.606,94.0019,213.124,102.002 C210.534,106.702,208.94,111.602,208.94,116.002 C208.94,119.202,209.836,122.202,211.729,124.702 C214.518,128.402,218.204,129.802,221.491,129.802 C222.986,129.802,224.181,129.502,225.078,129.202 C232.649,126.602,239.024,116.802,241.116,108.502 C242.212,108.302,243.009,107.902,243.706,107.102 z M234.243,103.202 C233.147,101.902,232.649,99.3019,232.649,97.5019 C232.649,95.9019,233.545,95.1019,234.143,95.1019 C234.84,95.1019,235.637,95.7019,235.637,97.2019 C235.637,98.5019,235.239,100.902,234.243,103.202 z M216.71,120.502 C216.71,116.802,218.304,111.202,220.894,106.402 C222.587,103.402,224.48,100.902,226.572,98.9019 C227.369,102.402,229.461,105.002,232.649,107.002 C232.051,109.102,230.856,111.602,229.361,114.202 C225.675,121.002,221.691,124.702,219.101,124.702 C217.606,124.702,216.71,123.502,216.71,120.502 z"/>
          </defs>
          <use xlink:href="#14" style="fill:#000000;fill-opacity:1;fill-rule:evenodd;opacity:1;stroke:none;"/>
        </g>
      </defs>
      <use xlink:href="#13"/>
      <defs>
        <title>Text</title>
        <g id="15">
          <defs>
            <path id="16" d="M255.561,125.202 C253.369,125.202,251.277,121.702,250.082,117.002 C253.07,112.702,255.86,108.402,258.25,104.602 C258.45,107.302,258.549,110.502,258.549,113.702 C258.549,120.202,257.653,125.202,255.561,125.202 z M241.913,115.602 C241.913,117.902,242.511,120.302,243.607,122.202 C246.994,128.502,252.971,130.102,258.948,129.902 C266.419,129.602,273.392,125.802,277.178,118.802 C278.971,115.702,278.672,112.902,278.174,111.902 C277.477,110.302,275.982,109.602,275.086,111.902 C273.293,116.802,270.503,120.102,266.419,122.902 C267.515,120.702,268.013,117.902,268.113,115.402 C268.312,110.002,267.017,103.502,267.017,96.4019 C267.017,95.1019,267.116,93.4019,267.216,92.2019 C270.304,87.1019,269.707,84.9019,267.017,84.9019 C265.523,84.9019,263.729,85.6019,262.136,87.0019 C259.844,88.9019,258.649,91.2019,258.25,94.8019 C255.66,99.1019,252.174,104.302,248.886,109.002 C248.588,106.602,247.093,106.102,245.101,107.802 C242.909,109.702,241.913,112.602,241.913,115.602 z"/>
          </defs>
          <use xlink:href="#16" style="fill:#000000;fill-opacity:1;fill-rule:evenodd;opacity:1;stroke:none;"/>
        </g>
      </defs>
      <use xlink:href="#15"/>
      <defs>
        <title>Text</title>
        <g id="17">
          <defs>
            <path id="18" d="M314.236,111.702 C313.837,110.402,312.343,110.602,311.048,112.402 C307.86,116.902,302.68,122.002,296.603,125.702 C300.688,116.202,305.868,106.502,308.757,100.902 C310.052,98.4019,310.55,96.2019,310.55,94.2019 C310.55,92.1019,310.151,90.6019,308.657,89.1019 C307.561,88.0019,306.266,88.2019,304.872,90.0019 C302.481,93.6019,299.791,99.7019,293.117,111.002 C288.235,119.302,283.753,125.202,281.163,125.202 C278.573,125.202,279.469,121.202,280.864,117.602 C282.756,112.902,284.848,108.802,288.235,103.402 C290.527,99.7019,291.722,96.8019,291.722,94.3019 C291.722,92.7019,290.826,90.9019,289.829,89.5019 C288.734,87.9019,287.239,88.0019,285.944,89.7019 C279.768,98.2019,274.887,108.302,272.595,114.602 C271.699,117.102,271.3,119.502,271.3,121.602 C271.3,125.802,273.492,129.602,278.473,129.602 C281.461,129.602,284.051,128.702,286.642,126.802 C286.642,126.802,285.147,130.302,285.147,130.302 C275.484,134.202,267.415,140.302,264.327,148.902 C263.729,150.702,263.431,152.402,263.431,153.602 C263.431,156.802,264.925,159.802,266.419,161.902 C268.81,165.102,270.902,165.102,273.193,164.202 C281.86,160.902,288.634,144.902,294.113,131.702 C302.282,128.302,308.856,124.602,312.841,118.502 C314.535,115.902,314.734,113.302,314.236,111.702 z M282.557,136.802 C280.166,142.202,277.776,147.102,275.684,150.802 C272.894,155.702,270.802,158.602,270.105,158.002 C269.109,157.102,269.806,153.002,272.297,148.302 C274.389,144.402,277.776,140.102,282.557,136.802 z"/>
          </defs>
          <use xlink:href="#18" style="fill:#000000;fill-opacity:1;fill-rule:evenodd;opacity:1;stroke:none;"/>
        </g>
      </defs>
      <use xlink:href="#17"/>
      <defs>
        <title>Text</title>
        <g id="19">
          <defs>
            <path id="20" d="M327.883,89.4019 C326.887,87.6019,325.393,87.5019,324.098,89.4019 C317.922,98.7019,310.251,112.702,308.358,118.302 C307.761,120.302,307.462,122.002,307.462,123.502 C307.462,125.902,308.259,127.602,309.653,129.002 C311.247,130.602,312.542,130.002,313.24,128.402 C317.324,119.402,321.807,109.602,327.286,103.802 C332.765,97.6019,337.646,94.8019,338.542,94.8019 C339.24,94.8019,337.646,97.4019,335.554,100.702 C331.669,106.902,327.086,116.102,327.086,121.502 C327.086,126.702,329.975,130.102,336.65,130.102 C342.627,130.102,349.899,124.802,352.688,119.302 C354.083,116.602,353.983,113.502,353.186,112.302 C352.29,110.902,350.895,110.802,349.899,112.702 C346.313,119.402,341.133,125.902,337.745,125.902 C336.45,125.902,335.753,124.602,335.753,122.502 C335.753,118.802,339.14,112.202,342.328,107.102 C345.516,101.502,347.309,98.3019,347.309,96.1019 C347.309,92.3019,344.619,88.8019,341.73,88.8019 C338.144,88.8019,333.362,92.1019,329.079,96.1019 C329.178,95.5019,329.178,94.8019,329.178,94.1019 C329.178,92.5019,328.78,90.9019,327.883,89.4019 z"/>
          </defs>
          <use xlink:href="#20" style="fill:#000000;fill-opacity:1;fill-rule:evenodd;opacity:1;stroke:none;"/>
        </g>
      </defs>
      <use xlink:href="#19"/>
      <defs>
        <title>Text</title>
        <g id="21">
          <defs>
            <path id="22" d="M348.405,118.602 C348.405,125.502,352.987,129.802,358.267,129.802 C366.635,129.802,373.309,121.202,374.704,118.202 C375.799,115.902,376.198,114.402,375.7,112.302 C375.003,109.602,372.711,109.802,371.616,112.202 C368.129,119.702,362.949,126.002,359.064,126.002 C357.37,126.002,356.374,123.902,356.374,120.902 C356.374,118.702,356.972,116.102,358.167,113.402 C361.654,105.802,367.332,95.9019,371.117,89.4019 C373.309,89.1019,375.899,88.9019,377.692,89.1019 C380.083,89.4019,380.78,88.2019,379.784,86.4019 C379.087,85.2019,377.393,83.6019,374.305,83.2019 C375.501,80.4019,375.899,78.1019,375.899,76.3019 C375.899,75.1019,375.501,73.4019,374.803,72.2019 C373.708,70.3019,372.512,70.2019,371.018,72.4019 C368.727,75.7019,366.635,79.0019,363.547,84.4019 C361.355,84.6019,358.665,84.7019,356.374,84.6019 C354.083,84.5019,353.087,85.5019,354.481,87.6019 C355.278,88.8019,357.071,89.9019,360.159,90.3019 C356.175,97.5019,352.389,105.402,350.397,110.302 C349.002,113.602,348.405,116.402,348.405,118.602 z"/>
          </defs>
          <use xlink:href="#22" style="fill:#000000;fill-opacity:1;fill-rule:evenodd;opacity:1;stroke:none;"/>
        </g>
      </defs>
      <use xlink:href="#21"/>
      <defs>
        <title>Text</title>
        <g id="23">
          <defs>
            <path id="24" d="M410.965,119.102 C412.459,116.102,411.762,113.802,411.263,112.602 C410.466,110.902,408.873,111.102,408.175,112.602 C405.187,118.702,399.907,125.802,396.42,125.802 C395.026,125.802,394.528,124.502,394.528,122.402 C394.528,120.802,394.926,118.702,395.823,116.502 C396.919,114.102,399.409,109.902,404.888,100.102 C405.685,98.7019,405.984,97.3019,405.984,95.9019 C405.984,92.0019,403.095,88.9019,400.206,88.9019 C398.313,88.9019,394.827,90.1019,391.838,92.3019 C392.834,90.9019,399.01,81.6019,401.003,78.3019 C403.394,74.1019,404.589,70.4019,404.589,67.7019 C404.589,66.3019,404.29,65.0019,403.792,63.9019 C402.896,61.9019,401.401,61.5019,399.807,63.5019 C391.738,73.9019,372.014,107.402,368.029,117.902 C365.539,124.502,366.934,126.902,368.527,128.802 C369.723,130.302,371.217,130.002,372.014,128.202 C374.405,122.202,377.991,115.302,381.378,109.702 C386.658,101.102,396.122,94.8019,397.018,94.8019 C397.715,94.8019,396.221,97.2019,394.328,100.502 C390.543,106.402,385.662,115.102,385.662,121.402 C385.662,126.602,388.65,129.902,395.225,129.902 C401.601,129.902,408.076,124.902,410.965,119.102 z"/>
          </defs>
          <use xlink:href="#24" style="fill:#000000;fill-opacity:1;fill-rule:evenodd;opacity:1;stroke:none;"/>
        </g>
      </defs>
      <use xlink:href="#23"/>
    </g>
    <g id="25">
      <title>Text</title>
      <defs>
        <title>Text</title>
        <g id="26">
          <defs>
            <path id="27" d="M91.568,80.6988 C91.568,81.6488,91.796,82.2568,92.366,82.7888 C92.898,83.3208,93.354,83.2828,93.658,82.5988 C95.862,77.6208,98.598,72.5668,100.574,68.9948 C102.208,66.1448,103.31,63.9408,103.272,62.5728 C105.324,62.2308,107.528,61.8888,109.162,62.0788 C110.036,62.1548,110.188,61.6988,109.998,61.2428 C109.428,59.6468,107.832,59.1908,106.084,59.1908 C103.88,59.1908,97.8,60.2168,94.494,60.2168 C93.962,60.2168,93.658,60.4448,93.772,60.9388 C94.19,62.4208,95.824,63.2948,98.294,63.2948 C98.826,63.2948,99.358,63.2188,99.928,63.1428 C96.584,68.3108,92.746,76.0248,91.796,79.1788 C91.644,79.6728,91.568,80.2428,91.568,80.6988 z"/>
          </defs>
          <use xlink:href="#27" style="fill:#000000;fill-opacity:1;fill-rule:evenodd;opacity:1;stroke:none;"/>
        </g>
      </defs>
      <use xlink:href="#26"/>
      <defs>
        <title>Text</title>
        <g id="28">
          <defs>
            <path id="29" d="M117.826,79.1408 C118.396,78.0008,118.13,77.1268,117.94,76.6708 C117.636,76.0248,117.028,76.1008,116.762,76.6708 C115.622,78.9888,113.608,81.6868,112.278,81.6868 C111.746,81.6868,111.556,81.1928,111.556,80.3948 C111.556,79.7868,111.708,78.9888,112.05,78.1528 C112.468,77.2408,113.418,75.6448,115.508,71.9208 C115.812,71.3888,115.926,70.8568,115.926,70.3248 C115.926,68.8428,114.824,67.6648,113.722,67.6648 C113,67.6648,111.67,68.1208,110.53,68.9568 C110.91,68.4248,113.266,64.8908,114.026,63.6368 C114.938,62.0408,115.394,60.6348,115.394,59.6088 C115.394,59.0768,115.28,58.5828,115.09,58.1648 C114.748,57.4048,114.178,57.2528,113.57,58.0128 C110.492,61.9648,102.968,74.6948,101.448,78.6848 C100.498,81.1928,101.03,82.1048,101.638,82.8268 C102.094,83.3968,102.664,83.2828,102.968,82.5988 C103.88,80.3188,105.248,77.6968,106.54,75.5688 C108.554,72.3008,112.164,69.9068,112.506,69.9068 C112.772,69.9068,112.202,70.8188,111.48,72.0728 C110.036,74.3148,108.174,77.6208,108.174,80.0148 C108.174,81.9908,109.314,83.2448,111.822,83.2448 C114.254,83.2448,116.724,81.3448,117.826,79.1408 z"/>
          </defs>
          <use xlink:href="#29" style="fill:#000000;fill-opacity:1;fill-rule:evenodd;opacity:1;stroke:none;"/>
        </g>
      </defs>
      <use xlink:href="#28"/>
      <defs>
        <title>Text</title>
        <g id="30">
          <defs>
            <path id="31" d="M126.224,69.6788 C126.642,70.0208,125.844,71.8068,124.742,73.2888 C123.982,74.3148,122.766,75.4548,121.854,75.4548 C121.588,75.4548,121.322,75.3788,121.018,75.1888 C122.842,71.5408,125.654,69.2228,126.224,69.6788 z M129.074,71.1988 C129.074,70.7048,128.922,70.1348,128.694,69.7928 C128.162,69.0328,127.402,68.4248,126.338,67.8168 C125.958,67.5888,125.54,67.5128,125.008,67.5128 C122.804,67.5128,119.726,69.5268,117.75,73.5548 C116.952,75.0748,116.572,76.5568,116.572,77.9248 C116.572,80.9648,118.51,83.2828,122.044,83.2448 C125.008,83.2068,128.048,81.4208,129.644,79.1028 C130.328,78.0768,130.29,76.9748,130.176,76.6328 C129.872,75.8728,129.378,75.9488,128.96,76.5568 C127.402,78.9128,124.856,81.7248,121.968,81.7248 C120.828,81.7248,120.144,80.5468,120.144,78.8748 C120.144,78.1908,120.258,77.3928,120.486,76.6328 C121.36,77.2028,122.272,77.4688,123.184,77.4688 C126.528,77.4688,129.074,73.4788,129.074,71.1988 z"/>
          </defs>
          <use xlink:href="#31" style="fill:#000000;fill-opacity:1;fill-rule:evenodd;opacity:1;stroke:none;"/>
        </g>
      </defs>
      <use xlink:href="#30"/>
      <defs>
        <title>Text</title>
        <g id="32">
          <defs>
            <path id="33" d="M143.704,79.7108 C143.704,81.3068,144.35,82.3328,145.376,83.1308 C145.946,83.5488,146.288,83.5488,146.706,82.7888 C148.948,78.7228,152.634,73.5928,155.978,69.2988 C154.116,73.0988,152.254,77.0888,151.798,78.8748 C151.798,78.8748,151.798,78.8368,151.798,78.8368 C151.57,79.6728,151.494,80.3948,151.494,81.0028 C151.494,82.1048,151.912,82.7508,152.368,83.1688 C152.976,83.7008,153.318,83.7008,153.584,82.9408 C155.446,77.6208,159.208,70.0968,161.83,65.1948 C162.324,64.1688,162.742,63.1048,162.742,62.0788 C162.742,61.1668,162.4,60.2548,161.64,59.4568 C160.918,58.7728,160.424,58.8108,159.93,59.6088 C155.712,66.2968,151.646,70.0208,147.656,76.0628 C149.024,70.9708,149.784,68.6528,150.962,65.2328 C151.304,64.1308,151.494,63.1808,151.494,62.4968 C151.494,61.2808,150.962,60.2928,149.936,59.4188 C149.214,58.8488,148.606,59.0768,148.15,59.6848 C144.16,65.0428,138.194,74.9988,136.636,78.7988 C136.294,79.6348,136.104,80.4708,136.104,81.1928 C136.104,82.0288,136.37,82.6748,136.788,83.0928 C137.282,83.5868,137.852,83.4728,138.08,82.9408 C140.132,78.2288,143.514,72.7568,146.478,68.1968 C145.186,72.3768,144.084,76.6708,143.818,78.3808 C143.742,78.8748,143.704,79.2928,143.704,79.7108 z"/>
          </defs>
          <use xlink:href="#33" style="fill:#000000;fill-opacity:1;fill-rule:evenodd;opacity:1;stroke:none;"/>
        </g>
      </defs>
      <use xlink:href="#32"/>
      <defs>
        <title>Text</title>
        <g id="34">
          <defs>
            <path id="35" d="M160.234,73.6308 C158.866,75.5308,158.182,77.6588,158.182,79.2928 C158.182,81.5348,159.398,83.1688,161.64,83.1688 C163.16,83.1688,164.87,81.9908,165.972,80.9268 C166.276,82.3328,167.378,83.3208,169.278,83.3208 C171.596,83.3208,174.028,81.3068,175.016,79.2168 C175.548,78.1148,175.32,77.0888,175.168,76.7468 C174.788,75.9488,174.446,75.9868,174.028,76.7468 C172.774,79.2168,170.874,81.8008,169.506,81.8008 C169.126,81.8008,168.974,81.4588,168.974,80.8888 C168.974,78.3428,172.166,74.2008,173.154,72.1108 C174.142,70.1348,173.8,68.4628,173.154,67.7028 C172.698,67.1708,172.052,67.2088,171.596,67.9688 C171.596,67.9688,170.874,69.1468,170.874,69.1468 C170.532,68.1588,169.696,67.4748,168.328,67.4748 C166.39,67.4748,163.274,69.2608,160.234,73.6308 z M162.134,81.4968 C161.754,81.4968,161.602,81.0408,161.602,80.3568 C161.602,79.1408,162.248,77.1268,163.388,75.3408 C165.326,72.2248,167.948,69.8308,168.708,69.8308 C169.088,69.8308,169.164,70.0968,169.164,70.5528 C169.164,71.5408,168.48,73.4028,166.998,75.9868 C165.136,79.1788,163.388,81.4968,162.134,81.4968 z"/>
          </defs>
          <use xlink:href="#35" style="fill:#000000;fill-opacity:1;fill-rule:evenodd;opacity:1;stroke:none;"/>
        </g>
      </defs>
      <use xlink:href="#34"/>
      <defs>
        <title>Text</title>
        <g id="36">
          <defs>
            <path id="37" d="M190.482,76.8988 C190.482,76.0628,189.798,76.0628,189.304,76.7088 C187.822,78.7608,185.922,80.3568,183.566,81.8008 C184.82,78.9128,186.34,76.1388,187.556,73.7448 C188.506,71.8448,188.924,70.8188,188.924,69.7928 C188.924,68.9948,188.658,68.2728,188.316,67.8548 C187.822,67.2848,187.138,67.2468,186.682,68.1208 C186.454,68.5388,186.226,68.9188,186.074,69.1848 C185.732,68.2728,184.896,67.5888,183.642,67.5888 C179.918,67.5888,173.496,73.8588,173.496,79.2928 C173.496,81.5728,174.75,83.1308,176.916,83.1308 C177.942,83.1308,178.93,82.7508,179.766,82.1808 C179.766,82.1808,179.272,83.4348,179.272,83.4348 C174.636,85.0308,170.95,88.9448,170.95,92.3648 C170.95,93.5428,171.52,94.5308,172.052,95.3288 C172.85,96.3928,173.8,96.5448,174.712,96.2028 C177.79,94.7588,180.564,88.9828,182.578,84.0808 C185.694,82.9408,188.316,81.4208,189.76,79.1788 C190.33,78.3048,190.482,77.5068,190.482,76.8988 z M177.372,81.5348 C177.03,81.5348,176.878,81.0408,176.878,80.3188 C176.878,75.9108,182.73,69.9448,184.022,69.9448 C184.288,69.9448,184.402,70.1728,184.402,70.6288 C184.402,71.6168,183.718,73.4788,182.236,76.0628 C180.374,79.2548,178.588,81.5728,177.372,81.5348 z M178.17,85.9428 C177.448,87.8428,176.612,89.5148,175.852,90.8448 C174.674,92.8968,173.724,94.0368,173.382,93.7708 C173.002,93.4288,173.496,91.6428,174.598,89.7808 C175.396,88.4508,176.574,87.0828,178.17,85.9428 z"/>
          </defs>
          <use xlink:href="#37" style="fill:#000000;fill-opacity:1;fill-rule:evenodd;opacity:1;stroke:none;"/>
        </g>
      </defs>
      <use xlink:href="#36"/>
      <defs>
        <title>Text</title>
        <g id="38">
          <defs>
            <path id="39" d="M195.422,67.8548 C195.042,67.1708,194.472,67.1328,193.978,67.8548 C191.622,71.3888,188.696,76.7088,187.974,78.8368 C187.746,79.5968,187.632,80.2428,187.632,80.8128 C187.632,81.7248,187.936,82.3708,188.468,82.9028 C189.076,83.5108,189.57,83.2828,189.836,82.6748 C191.394,79.2548,193.104,75.5308,195.194,73.3268 C197.284,70.9708,199.146,69.9068,199.488,69.9068 C199.754,69.9068,199.146,70.8948,198.348,72.1488 C196.866,74.5048,195.118,78.0008,195.118,80.0528 C195.118,82.0288,196.22,83.3208,198.766,83.3208 C201.046,83.3208,203.82,81.3068,204.884,79.2168 C205.416,78.1908,205.378,77.0128,205.074,76.5568 C204.732,76.0248,204.2,75.9868,203.82,76.7088 C202.452,79.2548,200.476,81.7248,199.184,81.7248 C198.69,81.7248,198.424,81.2308,198.424,80.4328 C198.424,79.0268,199.716,76.5188,200.932,74.5808 C202.148,72.4528,202.832,71.2368,202.832,70.4008 C202.832,68.9568,201.806,67.6268,200.704,67.6268 C199.336,67.6268,197.512,68.8808,195.878,70.4008 C195.916,70.1728,195.916,69.9068,195.916,69.6408 C195.916,69.0328,195.764,68.4248,195.422,67.8548 z"/>
          </defs>
          <use xlink:href="#39" style="fill:#000000;fill-opacity:1;fill-rule:evenodd;opacity:1;stroke:none;"/>
        </g>
      </defs>
      <use xlink:href="#38"/>
      <defs>
        <title>Text</title>
        <g id="40">
          <defs>
            <path id="41" d="M209.596,65.8788 C209.596,67.0568,210.622,68.1968,211.838,68.1968 C212.788,68.1968,213.358,67.3228,213.358,66.2968 C213.358,65.1948,212.332,63.8268,211.268,63.8268 C210.394,63.8268,209.596,64.8148,209.596,65.8788 z M212.408,79.2168 C212.902,78.2288,212.94,77.2788,212.598,76.6328 C212.256,75.9488,211.762,75.8728,211.458,76.5568 C210.28,79.1408,208.304,81.6868,206.784,81.6868 C206.366,81.6868,206.214,81.3448,206.214,80.7368 C206.214,80.1288,206.404,79.3308,206.746,78.4568 C207.392,76.9368,209.14,74.0868,209.862,72.4528 C210.85,70.5528,210.546,68.9188,209.824,68.1588 C209.33,67.5888,208.874,67.6648,208.304,68.4248 C206.898,70.4008,204.466,74.8088,203.516,77.4688 C203.212,78.4568,203.06,79.2548,203.06,79.9768 C203.06,81.8768,204.086,83.2068,206.404,83.2068 C208.646,83.2068,211.268,81.6108,212.408,79.2168 z"/>
          </defs>
          <use xlink:href="#41" style="fill:#000000;fill-opacity:1;fill-rule:evenodd;opacity:1;stroke:none;"/>
        </g>
      </defs>
      <use xlink:href="#40"/>
      <defs>
        <title>Text</title>
        <g id="42">
          <defs>
            <path id="43" d="M221.452,65.0808 C222.554,63.1428,223.01,61.8128,223.01,60.7488 C223.01,59.4188,222.364,58.7348,221.908,58.7348 C221.642,58.7348,221.338,58.9248,221.11,59.2668 C216.778,65.8028,207.278,81.5348,207.278,89.2868 C207.278,92.2128,209.064,94.4928,210.508,94.4928 C211.496,94.4928,212.256,94.0368,213.016,93.0868 C214.84,90.7688,216.512,86.4368,217.082,82.6748 C219.324,81.8008,221.148,79.6728,221.528,78.7608 C221.87,77.8868,222.098,77.0508,221.87,76.4048 C221.528,75.4168,220.768,75.4928,220.35,76.3288 C219.552,78.0008,218.526,79.4828,217.348,80.4328 C217.538,78.3808,217.31,76.1768,215.486,75.5308 C217.31,71.9588,219.856,67.8928,221.452,65.0808 z M214.764,81.1548 C214.232,80.9268,214.118,80.4708,214.118,79.7868 C214.118,78.9128,214.346,77.4308,214.612,77.3168 C214.878,77.2028,215.03,77.8108,215.03,79.2168 C215.03,80.0148,214.954,80.4708,214.764,81.1548 z M209.938,90.8448 C209.938,89.0588,210.964,85.6768,212.408,82.1048 C212.826,82.5608,213.472,82.8648,214.156,83.0168 C213.092,87.2728,211.078,92.1368,210.28,92.1368 C210.052,92.1368,209.938,91.5668,209.938,90.8448 z"/>
          </defs>
          <use xlink:href="#43" style="fill:#000000;fill-opacity:1;fill-rule:evenodd;opacity:1;stroke:none;"/>
        </g>
      </defs>
      <use xlink:href="#42"/>
      <defs>
        <title>Text</title>
        <g id="44">
          <defs>
            <path id="45" d="M226.164,65.8788 C226.164,67.0568,227.19,68.1968,228.406,68.1968 C229.356,68.1968,229.926,67.3228,229.926,66.2968 C229.926,65.1948,228.9,63.8268,227.836,63.8268 C226.962,63.8268,226.164,64.8148,226.164,65.8788 z M228.976,79.2168 C229.47,78.2288,229.508,77.2788,229.166,76.6328 C228.824,75.9488,228.33,75.8728,228.026,76.5568 C226.848,79.1408,224.872,81.6868,223.352,81.6868 C222.934,81.6868,222.782,81.3448,222.782,80.7368 C222.782,80.1288,222.972,79.3308,223.314,78.4568 C223.96,76.9368,225.708,74.0868,226.43,72.4528 C227.418,70.5528,227.114,68.9188,226.392,68.1588 C225.898,67.5888,225.442,67.6648,224.872,68.4248 C223.466,70.4008,221.034,74.8088,220.084,77.4688 C219.78,78.4568,219.628,79.2548,219.628,79.9768 C219.628,81.8768,220.654,83.2068,222.972,83.2068 C225.214,83.2068,227.836,81.6108,228.976,79.2168 z"/>
          </defs>
          <use xlink:href="#45" style="fill:#000000;fill-opacity:1;fill-rule:evenodd;opacity:1;stroke:none;"/>
        </g>
      </defs>
      <use xlink:href="#44"/>
      <defs>
        <title>Text</title>
        <g id="46">
          <defs>
            <path id="47" d="M236.044,67.5888 C233.84,67.5888,230.838,69.6408,228.9,73.5548 C228.102,75.0748,227.722,76.5948,227.722,77.9628 C227.722,81.0028,229.66,83.2448,233.156,83.2068 C236.12,83.1688,239.198,81.3068,240.642,79.0268 C241.326,77.9628,241.326,76.9748,241.136,76.4808 C240.908,75.8348,240.338,75.9868,239.996,76.5568 C238.476,78.8368,235.854,81.7628,233.004,81.7248 C231.978,81.6868,231.294,80.6608,231.294,78.9888 C231.294,77.8488,231.674,76.2908,232.434,74.7328 C233.954,71.6548,236.424,69.1848,236.88,69.5648 C237.032,69.7168,236.766,70.4008,236.386,71.1608 C235.702,72.7188,235.512,73.4788,235.512,73.9728 C235.512,74.9988,236.158,75.7208,236.842,76.1388 C237.602,76.5188,237.944,76.4428,238.21,75.7208 C238.362,75.3028,238.59,74.7328,238.894,74.1628 C239.616,72.6808,240.224,71.2748,239.654,70.0208 C239.046,68.8808,237.45,67.5888,236.044,67.5888 z"/>
          </defs>
          <use xlink:href="#47" style="fill:#000000;fill-opacity:1;fill-rule:evenodd;opacity:1;stroke:none;"/>
        </g>
      </defs>
      <use xlink:href="#46"/>
      <defs>
        <title>Text</title>
        <g id="48">
          <defs>
            <path id="49" d="M249.268,69.6788 C249.686,70.0208,248.888,71.8068,247.786,73.2888 C247.026,74.3148,245.81,75.4548,244.898,75.4548 C244.632,75.4548,244.366,75.3788,244.062,75.1888 C245.886,71.5408,248.698,69.2228,249.268,69.6788 z M252.118,71.1988 C252.118,70.7048,251.966,70.1348,251.738,69.7928 C251.206,69.0328,250.446,68.4248,249.382,67.8168 C249.002,67.5888,248.584,67.5128,248.052,67.5128 C245.848,67.5128,242.77,69.5268,240.794,73.5548 C239.996,75.0748,239.616,76.5568,239.616,77.9248 C239.616,80.9648,241.554,83.2828,245.088,83.2448 C248.052,83.2068,251.092,81.4208,252.688,79.1028 C253.372,78.0768,253.334,76.9748,253.22,76.6328 C252.916,75.8728,252.422,75.9488,252.004,76.5568 C250.446,78.9128,247.9,81.7248,245.012,81.7248 C243.872,81.7248,243.188,80.5468,243.188,78.8748 C243.188,78.1908,243.302,77.3928,243.53,76.6328 C244.404,77.2028,245.316,77.4688,246.228,77.4688 C249.572,77.4688,252.118,73.4788,252.118,71.1988 z"/>
          </defs>
          <use xlink:href="#49" style="fill:#000000;fill-opacity:1;fill-rule:evenodd;opacity:1;stroke:none;"/>
        </g>
      </defs>
      <use xlink:href="#48"/>
      <defs>
        <title>Text</title>
        <g id="50">
          <defs>
            <path id="51" d="M258.198,67.8548 C257.818,67.1708,257.248,67.1328,256.754,67.8548 C254.398,71.3888,251.472,76.7088,250.75,78.8368 C250.522,79.5968,250.408,80.2428,250.408,80.8128 C250.408,81.7248,250.712,82.3708,251.244,82.9028 C251.852,83.5108,252.346,83.2828,252.612,82.6748 C254.17,79.2548,255.88,75.5308,257.97,73.3268 C260.06,70.9708,261.922,69.9068,262.264,69.9068 C262.53,69.9068,261.922,70.8948,261.124,72.1488 C259.642,74.5048,257.894,78.0008,257.894,80.0528 C257.894,82.0288,258.996,83.3208,261.542,83.3208 C263.822,83.3208,266.596,81.3068,267.66,79.2168 C268.192,78.1908,268.154,77.0128,267.85,76.5568 C267.508,76.0248,266.976,75.9868,266.596,76.7088 C265.228,79.2548,263.252,81.7248,261.96,81.7248 C261.466,81.7248,261.2,81.2308,261.2,80.4328 C261.2,79.0268,262.492,76.5188,263.708,74.5808 C264.924,72.4528,265.608,71.2368,265.608,70.4008 C265.608,68.9568,264.582,67.6268,263.48,67.6268 C262.112,67.6268,260.288,68.8808,258.654,70.4008 C258.692,70.1728,258.692,69.9068,258.692,69.6408 C258.692,69.0328,258.54,68.4248,258.198,67.8548 z"/>
          </defs>
          <use xlink:href="#51" style="fill:#000000;fill-opacity:1;fill-rule:evenodd;opacity:1;stroke:none;"/>
        </g>
      </defs>
      <use xlink:href="#50"/>
      <defs>
        <title>Text</title>
        <g id="52">
          <defs>
            <path id="53" d="M266.026,78.9508 C266.026,81.5728,267.774,83.2068,269.788,83.2068 C272.98,83.2068,275.526,79.9388,276.058,78.7988 C276.476,77.9248,276.628,77.3548,276.438,76.5568 C276.172,75.5308,275.298,75.6068,274.88,76.5188 C273.55,79.3688,271.574,81.7628,270.092,81.7628 C269.446,81.7628,269.066,80.9648,269.066,79.8248 C269.066,78.9888,269.294,78.0008,269.75,76.9748 C271.08,74.0868,273.246,70.3248,274.69,67.8548 C275.526,67.7408,276.514,67.6648,277.198,67.7408 C278.11,67.8548,278.376,67.3988,277.996,66.7148 C277.73,66.2588,277.084,65.6508,275.906,65.4988 C276.362,64.4348,276.514,63.5608,276.514,62.8768 C276.514,62.4208,276.362,61.7748,276.096,61.3188 C275.678,60.5968,275.222,60.5588,274.652,61.3948 C273.778,62.6488,272.98,63.9028,271.802,65.9548 C270.966,66.0308,269.94,66.0688,269.066,66.0308 C268.192,65.9928,267.812,66.3728,268.344,67.1708 C268.648,67.6268,269.332,68.0448,270.51,68.1968 C268.99,70.9328,267.546,73.9348,266.786,75.7968 C266.254,77.0508,266.026,78.1148,266.026,78.9508 z"/>
          </defs>
          <use xlink:href="#53" style="fill:#000000;fill-opacity:1;fill-rule:evenodd;opacity:1;stroke:none;"/>
        </g>
      </defs>
      <use xlink:href="#52"/>
    </g>
  </g>
</svg>
