<svg height="113.693pt" viewBox="10.5664 53.7604 405.471 113.693" width="405.471pt" xmlns="http://www.w3.org/2000/svg"><g fill-rule="evenodd"><path d="m34.0107 120.602c0 4.2 1.6935 6.9 4.3832 9 1.4943 1.1 2.3908 1.1 3.4866-.9 5.8775-10.7 15.5404-24.2 24.3068-35.5001-4.8813 10.0001-9.7626 20.5001-10.958 25.2001v-.1c-.5977 2.2-.7969 4.1-.7969 5.7 0 2.9 1.0958 4.6 2.2912 5.7 1.5939 1.4 2.4904 1.4 3.1878-.6 4.8812-14 14.7434-33.8001 21.617-46.7001 1.2951-2.7 2.3909-5.5 2.3909-8.2 0-2.4-.8966-4.8-2.889-6.9-1.8927-1.8-3.1877-1.7-4.4828.4-11.0575 17.6-21.7167 27.4-32.1765 43.3001 3.5862-13.4001 5.5786-19.5001 8.6667-28.5001.8966-2.9 1.3947-5.4 1.3947-7.2 0-3.2-1.3947-5.8-4.0844-8.1-1.8927-1.5-3.4866-.9-4.682.7-10.4599 14.1-26.0999 40.3001-30.1842 50.3001-.8966 2.2-1.3946 4.4-1.3946 6.3 0 2.2.6973 3.9 1.7931 5 1.295 1.3 2.7893 1 3.387-.4 5.3793-12.4 14.2453-26.8 22.0155-38.8001-3.387 11.0001-6.2759 22.3001-6.9732 26.8001-.1993 1.3-.2989 2.4-.2989 3.5z"/><path d="m77.3445 104.602c-3.5863 5-5.3794 10.6-5.3794 14.9 0 5.9 3.1878 10.2 9.0652 10.2 3.9848 0 8.4676-3.1 11.3565-5.9.7969 3.7 3.6858 6.3 8.6672 6.3 6.076 0 12.452-5.3 15.042-10.8 1.394-2.9.797-5.6.398-6.5-.996-2.1-1.892-2-2.988 0-3.288 6.5-8.269 13.3-11.855 13.3-.996 0-1.394-.9-1.394-2.4 0-6.7 8.367-17.6 10.958-23.1 2.59-5.2001 1.693-9.6001 0-11.6001-1.196-1.4-2.889-1.3-4.085.7 0 0-1.893 3.1-1.893 3.1-.896-2.6-3.088-4.4-6.6739-4.4-5.0805 0-13.2492 4.7-21.2186 16.2001zm4.9809 20.7c-.9962 0-1.3947-1.2-1.3947-3 0-3.2 1.6935-8.5 4.6821-13.2 5.0805-8.2 11.9541-14.5001 13.9465-14.5001.9957 0 1.1957.7 1.1957 1.9 0 2.6-1.7935 7.5001-5.6785 14.3001-4.8813 8.4-9.4637 14.5-12.7511 14.5z"/><path d="m129.644 89.4019c-.996-1.8-2.491-1.9-3.786 0-6.176 9.3-13.847 23.3001-15.739 28.9001-.598 2-.897 3.7-.897 5.2 0 2.4.797 4.1 2.192 5.5 1.594 1.6 2.889 1 3.586-.6 4.084-9 8.567-18.8 14.046-24.6 5.479-6.2001 10.36-9.0001 11.257-9.0001.697 0-.897 2.6-2.989 5.9001-3.885 6.2-8.467 15.4-8.467 20.8 0 5.2 2.889 8.6 9.563 8.6 5.977 0 13.249-5.3 16.039-10.8 1.394-2.7 1.295-5.8.498-7-.897-1.4-2.291-1.5-3.288.4-3.586 6.7-8.766 13.2-12.153 13.2-1.295 0-1.992-1.3-1.992-3.4 0-3.7 3.387-10.3 6.574-15.4 3.188-5.6 4.981-8.8001 4.981-11.0001 0-3.8-2.689-7.3-5.578-7.3-3.587 0-8.368 3.3-12.652 7.3.1-.6.1-1.3.1-2 0-1.6-.399-3.2-1.295-4.7z"/><path d="m174.173 119.302c1.295-2.6 1.395-5.1.498-6.8-.896-1.8-2.191-2-2.988-.2-3.089 6.8-8.269 13.5-12.253 13.5-1.096 0-1.495-.9-1.495-2.5s.498-3.7 1.395-6c1.693-4 6.276-11.5 8.169-15.8 2.59-5.0001 1.793-9.3001-.1-11.3001-1.295-1.5-2.49-1.3-3.985.7-3.686 5.2-10.061 16.8001-12.552 23.8001-.797 2.6-1.195 4.7-1.195 6.6 0 5 2.69 8.5 8.766 8.5 5.878 0 12.751-4.2 15.74-10.5z"/><path d="m185.43 104.802c4.283-7.3001 9.762-11.9001 11.556-11.1001.498.2.697 1.4.697 3.2 0 3.3001-1.196 8.4001-3.586 13.1001-4.085 8.3-8.568 13.8-11.656 13.8-2.59 0-3.287-7.2-.199-13.6zm20.72-4.9001c0-5.1-2.889-10.5-8.866-10.5-2.689 0-5.578 1.3-8.069 3 0-1.3-.199-2.6-.996-3.7s-2.092-1.5-3.885.7c-6.176 8.3-22.613 39.4001-25.502 48.9001-.897 2.8-1.196 4.9-1.196 6.5 0 2.1.499 3.5 1.993 5.4.996 1.2 2.191.8 2.988-1 4.184-9.8 8.468-18.4 12.851-26.6 2.291 5.4 7.173 8.1 15.042 8.1 8.269 0 16.637-2.8 21.119-10.9 1.694-3 1.594-5.8 1.395-6.8-.398-2-2.49-2.5-3.686-.2-2.889 5.8-8.567 12.4-15.939 13.9 3.188-2.6 6.475-7.1 8.866-12.6 2.291-4.8 3.885-9.9 3.885-14.2001z"/><path d="m243.706 107.102c.797-1 .598-1.9-1.992-1.9.896-8.5001-1.893-9.2001-4.682-12.5001-1.893-2.6-3.686-3.7-6.575-3.7-6.575 0-12.851 5-17.333 13.0001-2.59 4.7-4.184 9.6-4.184 14 0 3.2.896 6.2 2.789 8.7 2.789 3.7 6.475 5.1 9.762 5.1 1.495 0 2.69-.3 3.587-.6 7.571-2.6 13.946-12.4 16.038-20.7 1.096-.2 1.893-.6 2.59-1.4zm-9.463-3.9c-1.096-1.3-1.594-3.9001-1.594-5.7001 0-1.6.896-2.4 1.494-2.4.697 0 1.494.6 1.494 2.1 0 1.3-.398 3.7001-1.394 6.0001zm-17.533 17.3c0-3.7 1.594-9.3 4.184-14.1 1.693-3 3.586-5.5 5.678-7.5001.797 3.5001 2.889 6.1001 6.077 8.1001-.598 2.1-1.793 4.6-3.288 7.2-3.686 6.8-7.67 10.5-10.26 10.5-1.495 0-2.391-1.2-2.391-4.2z"/><path d="m255.561 125.202c-2.192 0-4.284-3.5-5.479-8.2 2.988-4.3 5.778-8.6 8.168-12.4.2 2.7.299 5.9.299 9.1 0 6.5-.896 11.5-2.988 11.5zm-13.648-9.6c0 2.3.598 4.7 1.694 6.6 3.387 6.3 9.364 7.9 15.341 7.7 7.471-.3 14.444-4.1 18.23-11.1 1.793-3.1 1.494-5.9.996-6.9-.697-1.6-2.192-2.3-3.088 0-1.793 4.9-4.583 8.2-8.667 11 1.096-2.2 1.594-5 1.694-7.5.199-5.4-1.096-11.9-1.096-19.0001 0-1.3.099-3 .199-4.2 3.088-5.1 2.491-7.3-.199-7.3-1.494 0-3.288.7-4.881 2.1-2.292 1.9-3.487 4.2-3.886 7.8-2.59 4.3-6.076 9.5001-9.364 14.2001-.298-2.4-1.793-2.9-3.785-1.2-2.192 1.9-3.188 4.8-3.188 7.8z"/><path d="m314.236 111.702c-.399-1.3-1.893-1.1-3.188.7-3.188 4.5-8.368 9.6-14.445 13.3 4.085-9.5 9.265-19.2 12.154-24.8 1.295-2.5001 1.793-4.7001 1.793-6.7001 0-2.1-.399-3.6-1.893-5.1-1.096-1.1-2.391-.9-3.785.9-2.391 3.6-5.081 9.7-11.755 21.0001-4.882 8.3-9.364 14.2-11.954 14.2s-1.694-4-.299-7.6c1.892-4.7 3.984-8.8 7.371-14.2 2.292-3.7001 3.487-6.6001 3.487-9.1001 0-1.6-.896-3.4-1.893-4.8-1.095-1.6-2.59-1.5-3.885.2-6.176 8.5-11.057 18.6001-13.349 24.9001-.896 2.5-1.295 4.9-1.295 7 0 4.2 2.192 8 7.173 8 2.988 0 5.578-.9 8.169-2.8 0 0-1.495 3.5-1.495 3.5-9.663 3.9-17.732 10-20.82 18.6-.598 1.8-.896 3.5-.896 4.7 0 3.2 1.494 6.2 2.988 8.3 2.391 3.2 4.483 3.2 6.774 2.3 8.667-3.3 15.441-19.3 20.92-32.5 8.169-3.4 14.743-7.1 18.728-13.2 1.694-2.6 1.893-5.2 1.395-6.8zm-31.679 25.1c-2.391 5.4-4.781 10.3-6.873 14-2.79 4.9-4.882 7.8-5.579 7.2-.996-.9-.299-5 2.192-9.7 2.092-3.9 5.479-8.2 10.26-11.5z"/><path d="m327.883 89.4019c-.996-1.8-2.49-1.9-3.785 0-6.176 9.3-13.847 23.3001-15.74 28.9001-.597 2-.896 3.7-.896 5.2 0 2.4.797 4.1 2.191 5.5 1.594 1.6 2.889 1 3.587-.6 4.084-9 8.567-18.8 14.046-24.6 5.479-6.2001 10.36-9.0001 11.256-9.0001.698 0-.896 2.6-2.988 5.9001-3.885 6.2-8.468 15.4-8.468 20.8 0 5.2 2.889 8.6 9.564 8.6 5.977 0 13.249-5.3 16.038-10.8 1.395-2.7 1.295-5.8.498-7-.896-1.4-2.291-1.5-3.287.4-3.586 6.7-8.766 13.2-12.154 13.2-1.295 0-1.992-1.3-1.992-3.4 0-3.7 3.387-10.3 6.575-15.4 3.188-5.6 4.981-8.8001 4.981-11.0001 0-3.8-2.69-7.3-5.579-7.3-3.586 0-8.368 3.3-12.651 7.3.099-.6.099-1.3.099-2 0-1.6-.398-3.2-1.295-4.7z"/><path d="m348.405 118.602c0 6.9 4.582 11.2 9.862 11.2 8.368 0 15.042-8.6 16.437-11.6 1.095-2.3 1.494-3.8.996-5.9-.697-2.7-2.989-2.5-4.084-.1-3.487 7.5-8.667 13.8-12.552 13.8-1.694 0-2.69-2.1-2.69-5.1 0-2.2.598-4.8 1.793-7.5 3.487-7.6 9.165-17.5001 12.95-24.0001 2.192-.3 4.782-.5 6.575-.3 2.391.3 3.088-.9 2.092-2.7-.697-1.2-2.391-2.8-5.479-3.2 1.196-2.8 1.594-5.1 1.594-6.9 0-1.2-.398-2.9-1.096-4.1-1.095-1.9-2.291-2-3.785.2-2.291 3.3-4.383 6.6-7.471 12-2.192.2-4.882.3-7.173.2s-3.287.9-1.893 3c.797 1.2 2.59 2.3 5.678 2.7-3.984 7.2-7.77 15.1001-9.762 20.0001-1.395 3.3-1.992 6.1-1.992 8.3z"/><path d="m410.965 119.102c1.494-3 .797-5.3.298-6.5-.797-1.7-2.39-1.5-3.088 0-2.988 6.1-8.268 13.2-11.755 13.2-1.394 0-1.892-1.3-1.892-3.4 0-1.6.398-3.7 1.295-5.9 1.096-2.4 3.586-6.6 9.065-16.4.797-1.4001 1.096-2.8001 1.096-4.2001 0-3.9-2.889-7-5.778-7-1.893 0-5.379 1.2-8.368 3.4.996-1.4 7.172-10.7 9.165-14 2.391-4.2 3.586-7.9 3.586-10.6 0-1.4-.299-2.7-.797-3.8-.896-2-2.391-2.4-3.985-.4-8.069 10.4-27.793 43.9001-31.778 54.4001-2.49 6.6-1.095 9 .498 10.9 1.196 1.5 2.69 1.2 3.487-.6 2.391-6 5.977-12.9 9.364-18.5 5.28-8.6 14.744-14.9001 15.64-14.9001.697 0-.797 2.4-2.69 5.7001-3.785 5.9-8.666 14.6-8.666 20.9 0 5.2 2.988 8.5 9.563 8.5 6.376 0 12.851-5 15.74-10.8z"/><path d="m91.568 80.6988c0 .95.228 1.558.798 2.09.532.532.988.494 1.292-.19 2.204-4.978 4.94-10.032 6.916-13.604 1.634-2.85 2.736-5.054 2.698-6.422 2.052-.342 4.256-.684 5.89-.494.874.076 1.026-.38.836-.836-.57-1.596-2.166-2.052-3.914-2.052-2.204 0-8.284 1.026-11.59 1.026-.532 0-.836.228-.722.722.418 1.482 2.052 2.356 4.522 2.356.532 0 1.064-.076 1.634-.152-3.344 5.168-7.182 12.882-8.132 16.036-.152.494-.228 1.064-.228 1.52z"/><path d="m117.826 79.1408c.57-1.14.304-2.014.114-2.47-.304-.646-.912-.57-1.178 0-1.14 2.318-3.154 5.016-4.484 5.016-.532 0-.722-.494-.722-1.292 0-.608.152-1.406.494-2.242.418-.912 1.368-2.508 3.458-6.232.304-.532.418-1.064.418-1.596 0-1.482-1.102-2.66-2.204-2.66-.722 0-2.052.456-3.192 1.292.38-.532 2.736-4.066 3.496-5.32.912-1.596 1.368-3.002 1.368-4.028 0-.532-.114-1.026-.304-1.444-.342-.76-.912-.912-1.52-.152-3.078 3.952-10.602 16.682-12.122 20.672-.95 2.508-.418 3.42.19 4.142.456.57 1.026.456 1.33-.228.912-2.28 2.28-4.902 3.572-7.03 2.014-3.268 5.624-5.662 5.966-5.662.266 0-.304.912-1.026 2.166-1.444 2.242-3.306 5.548-3.306 7.942 0 1.976 1.14 3.23 3.648 3.23 2.432 0 4.902-1.9 6.004-4.104z"/><path d="m126.224 69.6788c.418.342-.38 2.128-1.482 3.61-.76 1.026-1.976 2.166-2.888 2.166-.266 0-.532-.076-.836-.266 1.824-3.648 4.636-5.966 5.206-5.51zm2.85 1.52c0-.494-.152-1.064-.38-1.406-.532-.76-1.292-1.368-2.356-1.976-.38-.228-.798-.304-1.33-.304-2.204 0-5.282 2.014-7.258 6.042-.798 1.52-1.178 3.002-1.178 4.37 0 3.04 1.938 5.358 5.472 5.32 2.964-.038 6.004-1.824 7.6-4.142.684-1.026.646-2.128.532-2.47-.304-.76-.798-.684-1.216-.076-1.558 2.356-4.104 5.168-6.992 5.168-1.14 0-1.824-1.178-1.824-2.85 0-.684.114-1.482.342-2.242.874.57 1.786.836 2.698.836 3.344 0 5.89-3.99 5.89-6.27z"/><path d="m143.704 79.7108c0 1.596.646 2.622 1.672 3.42.57.418.912.418 1.33-.342 2.242-4.066 5.928-9.196 9.272-13.49-1.862 3.8-3.724 7.79-4.18 9.576v-.038c-.228.836-.304 1.558-.304 2.166 0 1.102.418 1.748.874 2.166.608.532.95.532 1.216-.228 1.862-5.32 5.624-12.844 8.246-17.746.494-1.026.912-2.09.912-3.116 0-.912-.342-1.824-1.102-2.622-.722-.684-1.216-.646-1.71.152-4.218 6.688-8.284 10.412-12.274 16.454 1.368-5.092 2.128-7.41 3.306-10.83.342-1.102.532-2.052.532-2.736 0-1.216-.532-2.204-1.558-3.078-.722-.57-1.33-.342-1.786.266-3.99 5.358-9.956 15.314-11.514 19.114-.342.836-.532 1.672-.532 2.394 0 .836.266 1.482.684 1.9.494.494 1.064.38 1.292-.152 2.052-4.712 5.434-10.184 8.398-14.744-1.292 4.18-2.394 8.474-2.66 10.184-.076.494-.114.912-.114 1.33z"/><path d="m160.234 73.6308c-1.368 1.9-2.052 4.028-2.052 5.662 0 2.242 1.216 3.876 3.458 3.876 1.52 0 3.23-1.178 4.332-2.242.304 1.406 1.406 2.394 3.306 2.394 2.318 0 4.75-2.014 5.738-4.104.532-1.102.304-2.128.152-2.47-.38-.798-.722-.76-1.14 0-1.254 2.47-3.154 5.054-4.522 5.054-.38 0-.532-.342-.532-.912 0-2.546 3.192-6.688 4.18-8.778.988-1.976.646-3.648 0-4.408-.456-.532-1.102-.494-1.558.266 0 0-.722 1.178-.722 1.178-.342-.988-1.178-1.672-2.546-1.672-1.938 0-5.054 1.786-8.094 6.156zm1.9 7.866c-.38 0-.532-.456-.532-1.14 0-1.216.646-3.23 1.786-5.016 1.938-3.116 4.56-5.51 5.32-5.51.38 0 .456.266.456.722 0 .988-.684 2.85-2.166 5.434-1.862 3.192-3.61 5.51-4.864 5.51z"/><path d="m190.482 76.8988c0-.836-.684-.836-1.178-.19-1.482 2.052-3.382 3.648-5.738 5.092 1.254-2.888 2.774-5.662 3.99-8.056.95-1.9 1.368-2.926 1.368-3.952 0-.798-.266-1.52-.608-1.938-.494-.57-1.178-.608-1.634.266-.228.418-.456.798-.608 1.064-.342-.912-1.178-1.596-2.432-1.596-3.724 0-10.146 6.27-10.146 11.704 0 2.28 1.254 3.838 3.42 3.838 1.026 0 2.014-.38 2.85-.95 0 0-.494 1.254-.494 1.254-4.636 1.596-8.322 5.51-8.322 8.93 0 1.178.57 2.166 1.102 2.964.798 1.064 1.748 1.216 2.66.874 3.078-1.444 5.852-7.22 7.866-12.122 3.116-1.14 5.738-2.66 7.182-4.902.57-.874.722-1.672.722-2.28zm-13.11 4.636c-.342 0-.494-.494-.494-1.216 0-4.408 5.852-10.374 7.144-10.374.266 0 .38.228.38.684 0 .988-.684 2.85-2.166 5.434-1.862 3.192-3.648 5.51-4.864 5.472zm.798 4.408c-.722 1.9-1.558 3.572-2.318 4.902-1.178 2.052-2.128 3.192-2.47 2.926-.38-.342.114-2.128 1.216-3.99.798-1.33 1.976-2.698 3.572-3.838z"/><path d="m195.422 67.8548c-.38-.684-.95-.722-1.444 0-2.356 3.534-5.282 8.854-6.004 10.982-.228.76-.342 1.406-.342 1.976 0 .912.304 1.558.836 2.09.608.608 1.102.38 1.368-.228 1.558-3.42 3.268-7.144 5.358-9.348 2.09-2.356 3.952-3.42 4.294-3.42.266 0-.342.988-1.14 2.242-1.482 2.356-3.23 5.852-3.23 7.904 0 1.976 1.102 3.268 3.648 3.268 2.28 0 5.054-2.014 6.118-4.104.532-1.026.494-2.204.19-2.66-.342-.532-.874-.57-1.254.152-1.368 2.546-3.344 5.016-4.636 5.016-.494 0-.76-.494-.76-1.292 0-1.406 1.292-3.914 2.508-5.852 1.216-2.128 1.9-3.344 1.9-4.18 0-1.444-1.026-2.774-2.128-2.774-1.368 0-3.192 1.254-4.826 2.774.038-.228.038-.494.038-.76 0-.608-.152-1.216-.494-1.786z"/><path d="m209.596 65.8788c0 1.178 1.026 2.318 2.242 2.318.95 0 1.52-.874 1.52-1.9 0-1.102-1.026-2.47-2.09-2.47-.874 0-1.672.988-1.672 2.052zm2.812 13.338c.494-.988.532-1.938.19-2.584-.342-.684-.836-.76-1.14-.076-1.178 2.584-3.154 5.13-4.674 5.13-.418 0-.57-.342-.57-.95s.19-1.406.532-2.28c.646-1.52 2.394-4.37 3.116-6.004.988-1.9.684-3.534-.038-4.294-.494-.57-.95-.494-1.52.266-1.406 1.976-3.838 6.384-4.788 9.044-.304.988-.456 1.786-.456 2.508 0 1.9 1.026 3.23 3.344 3.23 2.242 0 4.864-1.596 6.004-3.99z"/><path d="m221.452 65.0808c1.102-1.938 1.558-3.268 1.558-4.332 0-1.33-.646-2.014-1.102-2.014-.266 0-.57.19-.798.532-4.332 6.536-13.832 22.268-13.832 30.02 0 2.926 1.786 5.206 3.23 5.206.988 0 1.748-.456 2.508-1.406 1.824-2.318 3.496-6.65 4.066-10.412 2.242-.874 4.066-3.002 4.446-3.914.342-.874.57-1.71.342-2.356-.342-.988-1.102-.912-1.52-.076-.798 1.672-1.824 3.154-3.002 4.104.19-2.052-.038-4.256-1.862-4.902 1.824-3.572 4.37-7.638 5.966-10.45zm-6.688 16.074c-.532-.228-.646-.684-.646-1.368 0-.874.228-2.356.494-2.47s.418.494.418 1.9c0 .798-.076 1.254-.266 1.938zm-4.826 9.69c0-1.786 1.026-5.168 2.47-8.74.418.456 1.064.76 1.748.912-1.064 4.256-3.078 9.12-3.876 9.12-.228 0-.342-.57-.342-1.292z"/><path d="m226.164 65.8788c0 1.178 1.026 2.318 2.242 2.318.95 0 1.52-.874 1.52-1.9 0-1.102-1.026-2.47-2.09-2.47-.874 0-1.672.988-1.672 2.052zm2.812 13.338c.494-.988.532-1.938.19-2.584-.342-.684-.836-.76-1.14-.076-1.178 2.584-3.154 5.13-4.674 5.13-.418 0-.57-.342-.57-.95s.19-1.406.532-2.28c.646-1.52 2.394-4.37 3.116-6.004.988-1.9.684-3.534-.038-4.294-.494-.57-.95-.494-1.52.266-1.406 1.976-3.838 6.384-4.788 9.044-.304.988-.456 1.786-.456 2.508 0 1.9 1.026 3.23 3.344 3.23 2.242 0 4.864-1.596 6.004-3.99z"/><path d="m236.044 67.5888c-2.204 0-5.206 2.052-7.144 5.966-.798 1.52-1.178 3.04-1.178 4.408 0 3.04 1.938 5.282 5.434 5.244 2.964-.038 6.042-1.9 7.486-4.18.684-1.064.684-2.052.494-2.546-.228-.646-.798-.494-1.14.076-1.52 2.28-4.142 5.206-6.992 5.168-1.026-.038-1.71-1.064-1.71-2.736 0-1.14.38-2.698 1.14-4.256 1.52-3.078 3.99-5.548 4.446-5.168.152.152-.114.836-.494 1.596-.684 1.558-.874 2.318-.874 2.812 0 1.026.646 1.748 1.33 2.166.76.38 1.102.304 1.368-.418.152-.418.38-.988.684-1.558.722-1.482 1.33-2.888.76-4.142-.608-1.14-2.204-2.432-3.61-2.432z"/><path d="m249.268 69.6788c.418.342-.38 2.128-1.482 3.61-.76 1.026-1.976 2.166-2.888 2.166-.266 0-.532-.076-.836-.266 1.824-3.648 4.636-5.966 5.206-5.51zm2.85 1.52c0-.494-.152-1.064-.38-1.406-.532-.76-1.292-1.368-2.356-1.976-.38-.228-.798-.304-1.33-.304-2.204 0-5.282 2.014-7.258 6.042-.798 1.52-1.178 3.002-1.178 4.37 0 3.04 1.938 5.358 5.472 5.32 2.964-.038 6.004-1.824 7.6-4.142.684-1.026.646-2.128.532-2.47-.304-.76-.798-.684-1.216-.076-1.558 2.356-4.104 5.168-6.992 5.168-1.14 0-1.824-1.178-1.824-2.85 0-.684.114-1.482.342-2.242.874.57 1.786.836 2.698.836 3.344 0 5.89-3.99 5.89-6.27z"/><path d="m258.198 67.8548c-.38-.684-.95-.722-1.444 0-2.356 3.534-5.282 8.854-6.004 10.982-.228.76-.342 1.406-.342 1.976 0 .912.304 1.558.836 2.09.608.608 1.102.38 1.368-.228 1.558-3.42 3.268-7.144 5.358-9.348 2.09-2.356 3.952-3.42 4.294-3.42.266 0-.342.988-1.14 2.242-1.482 2.356-3.23 5.852-3.23 7.904 0 1.976 1.102 3.268 3.648 3.268 2.28 0 5.054-2.014 6.118-4.104.532-1.026.494-2.204.19-2.66-.342-.532-.874-.57-1.254.152-1.368 2.546-3.344 5.016-4.636 5.016-.494 0-.76-.494-.76-1.292 0-1.406 1.292-3.914 2.508-5.852 1.216-2.128 1.9-3.344 1.9-4.18 0-1.444-1.026-2.774-2.128-2.774-1.368 0-3.192 1.254-4.826 2.774.038-.228.038-.494.038-.76 0-.608-.152-1.216-.494-1.786z"/><path d="m266.026 78.9508c0 2.622 1.748 4.256 3.762 4.256 3.192 0 5.738-3.268 6.27-4.408.418-.874.57-1.444.38-2.242-.266-1.026-1.14-.95-1.558-.038-1.33 2.85-3.306 5.244-4.788 5.244-.646 0-1.026-.798-1.026-1.938 0-.836.228-1.824.684-2.85 1.33-2.888 3.496-6.65 4.94-9.12.836-.114 1.824-.19 2.508-.114.912.114 1.178-.342.798-1.026-.266-.456-.912-1.064-2.09-1.216.456-1.064.608-1.938.608-2.622 0-.456-.152-1.102-.418-1.558-.418-.722-.874-.76-1.444.076-.874 1.254-1.672 2.508-2.85 4.56-.836.076-1.862.114-2.736.076s-1.254.342-.722 1.14c.304.456.988.874 2.166 1.026-1.52 2.736-2.964 5.738-3.724 7.6-.532 1.254-.76 2.318-.76 3.154z"/></g></svg>