<svg height="200pt" viewBox="0 0 200 200" width="200pt" xmlns="http://www.w3.org/2000/svg"><path d="m60.3727 169.408c6.0869 3.473 12.6726 6.173 19.6252 7.961v22.631h39.9911v-22.634c7.168-1.847 13.946-4.651 20.19-8.284 0 0 16.345 16.345 16.345 16.345s28.278-28.278 28.278-28.278-16.175-16.175-16.175-16.175c3.857-6.468 6.829-13.526 8.748-21.001h22.623v-39.9909h-22.627c-1.906-7.4098-4.84-14.396-8.649-20.8087 0 0 16.08-16.0804 16.08-16.0804s-28.278-28.278-28.278-28.278-16.179 16.1789-16.179 16.1789c-6.288-3.6769-13.125-6.52-20.356-8.3809v-22.61299424h-39.9911v22.61359424c-7.0145 1.8059-13.6552 4.5365-19.7903 8.0561 0 0-15.8547-15.8547-15.8547-15.8547s-5.3349 5.335-5.3349 5.335-.1543-.1545-.1543-.1545-18.8524 18.8516-18.8524 18.8516.1547.1549.1547.1549-4.091 4.091-4.091 4.091 15.5271 15.527 15.5271 15.527c-3.9741 6.567-7.0226 13.7442-8.9832 21.3621h-22.61701004v39.9909h22.61111004c1.9775 7.688 5.0656 14.931 9.0902 21.548 0 0-15.6282 15.628-15.6282 15.628s5.1606 5.161 5.1606 5.161 17.6004 17.65 17.6004 17.65.0248-.025.0248-.025 5.4921 5.492 5.4921 5.492 16.0198-16.019 16.0198-16.019zm39.6213-29.421c-22.078 0-39.9959-17.905-39.9959-39.9959 0-22.091 17.9179-39.9959 39.9959-39.9959s39.996 17.9049 39.996 39.9959c0 22.0909-17.918 39.9959-39.996 39.9959z" fill="#101010" fill-rule="evenodd"/></svg>